<svg xmlns="http://www.w3.org/2000/svg" viewBox="0 0 33.1 31.28">
  <path fill="#fff" fill-rule="evenodd" d="M14.78 0a.91.91 0 0 0-.63.26L9.63 3.79H3.01a3 3 0 0 0-3.01 3v6.63c0 .49.4.89.89.89s.9-.4.9-.89V9.54a3 3 0 0 0 1.22.26h23.77c.69 0 1.25.55 1.25 1.24v4.18h-4.66a4.4 4.4 0 0 0-3.21 1.4 4.44 4.44 0 0 0-1.22 3.33 4.48 4.48 0 0 0 4.54 4.13h4.54v4.14c0 .71-.57 1.28-1.28 1.28h-8.89c-.49 0-.89.4-.89.89s.4.9.89.9h8.88a3.09 3.09 0 0 0 3.07-3.08v-4.14h1.25c1.12 0 2.04-.91 2.04-2.03v-4.8c0-1.12-.91-2.02-2.03-2.03h-1.25v-4.18a3.04 3.04 0 0 0-3.04-3.02h-.08V6.52a2.75 2.75 0 0 0-2.75-2.74h-6L14.43.26a.95.95 0 0 0-.64-.26Zm0 2.15 5.85 5.86H7.95l5.84-5.86Zm10.17 3.42c.25 0 .5.1.68.28.18.18.27.43.27.68v1.49h-2.74L19.74 5.6l4.21-.02Zm-20.94.02h4.84L5.43 8.01H3.02a1.22 1.22 0 1 1 0-2.43ZM.89 15.98c-.49 0-.89.4-.89.89s.4.9.89.9a12.06 12.06 0 0 1 12.06 12.05.9.9 0 0 0 1.78 0A13.86 13.86 0 0 0 .89 15.98ZM31.07 17c.07 0 .14.03.18.08.05.04.07.1.07.17v4.79c0 .06-.02.13-.07.18-.04.05-.11.07-.18.07h-7.58a2.71 2.71 0 0 1-2.76-2.46c-.05-.73.21-1.44.71-1.97s1.2-.84 1.93-.85h7.71Zm-7.64 1.15c-.53 0-1.07.36-1.07 1.07 0 1.42 2.13 1.42 2.13 0 0-.71-.53-1.07-1.06-1.07ZM.89 20.31c-.49 0-.89.4-.89.89s.4.9.89.9a7.95 7.95 0 0 1 7.97 7.95c0 .49.4.9.89.9s.9-.41.9-.9A9.73 9.73 0 0 0 .89 20.3Zm0 3.97c-.49 0-.89.4-.89.89s.4.9.89.9a3.88 3.88 0 0 1 3.88 3.87c0 .49.4.9.89.9s.9-.41.9-.9a5.69 5.69 0 0 0-5.67-5.66Z"/>
</svg>
