<svg xmlns="http://www.w3.org/2000/svg" viewBox="0 0 36.07 36.01">
  <path fill="#fff" fill-rule="evenodd" d="M9.08 24.3a2.8 2.8 0 0 0 2.8 2.63h17.7c.76 0 1.35.34 1.74.97.53.86 1.03 1.75 1.52 2.63.36.65.35 1.31-.03 1.96l-1.45 2.5c-.38.65-.96.99-1.72 1h-2.92c-.73 0-1.31-.32-1.69-.95-.51-.85-1-1.71-1.49-2.58a1.9 1.9 0 0 1 .02-1.99l.66-1.15h-8.47c.11.19.22.37.31.56.19.41.41.81.55 1.24.14.43.01.87-.21 1.26-.49.86-.98 1.73-1.49 2.58-.37.62-.92.96-1.64.97h-3.04c-.72 0-1.28-.35-1.64-.97l-1.46-2.53a1.91 1.91 0 0 1 0-2.01c.4-.71.81-1.42 1.23-2.11.1-.17.11-.27-.05-.42A5.06 5.06 0 0 1 6.67 24c.02-1.15-.27-2.25-.47-3.36-.66-3.77-1.34-7.53-2.01-11.3l-.72-4.02a.83.83 0 0 0-.22-.37L.36 2.05C-.28 1.4-.04.34.83.06c.43-.13.85-.06 1.18.27 1.14 1.13 2.27 2.26 3.39 3.4.17.17.27.44.33.68.15.69.27 1.39.37 2.08.03.23.13.29.34.3l5.69.32 6.94.39 7.95.45 7.86.45c.86.05 1.29.64 1.16 1.48l-1.22 8.47-.72 4.93a1.2 1.2 0 0 1-1.13 1.01H9.08ZM6.59 9.19l2.27 12.72H31.9l1.62-11.19L6.59 9.2Zm21.59 24.43c.35.01.7.02 1.04 0 .1 0 .23-.07.28-.15.36-.6.7-1.2 1.04-1.81a.34.34 0 0 0 0-.31c-.34-.61-.68-1.21-1.04-1.81a.42.42 0 0 0-.28-.16c-.35-.02-.7-.01-1.04 0-.41 0-.88-.11-1.2.06-.3.17-.43.64-.63.99s-.56.71-.56 1.06c0 .37.35.73.56 1.09.2.35.34.82.65 1 .3.17.77.04 1.17.04Zm-16.42-4.29c-.34 0-.68-.02-1.01 0a.43.43 0 0 0-.32.19c-.35.57-.67 1.15-1.01 1.72-.09.14-.1.26 0 .41l1 1.73c.08.15.17.21.35.21h2c.18 0 .27-.06.35-.21l1-1.73c.09-.15.08-.26 0-.41l-.98-1.7c-.09-.16-.18-.23-.37-.22-.33.02-.66 0-.98 0Z"/>
</svg>
