<svg xmlns="http://www.w3.org/2000/svg" viewBox="0 0 30.95 34.69" fill="#fff">
  <path d="M15.47 34.69zM29.36 7.49 17.06.39a3.42 3.42 0 0 0-3.17 0l-12.3 7.1C.69 8.01 0 9.19 0 10.24v14.21c0 1.04.68 2.22 1.59 2.75l12.3 7.1c.45.26 1.02.39 1.58.39a3.2 3.2 0 0 0 1.58-.39l12.3-7.1c.9-.52 1.59-1.7 1.59-2.75V10.24c0-1.04-.68-2.22-1.59-2.75Zm-.68 16.95c0 .24-.24.66-.45.78l-12.3 7.1a1.2 1.2 0 0 1-.91 0l-12.3-7.1a1.16 1.16 0 0 1-.45-.78V10.23c0-.24.24-.66.45-.78l12.3-7.1c.21-.12.69-.12.91 0l12.3 7.1c.21.12.45.54.45.78v14.21Z"/>
  <path d="M15.52 21.92c.65 0 1.18-.53 1.18-1.18V9.11a1.18 1.18 0 0 0-2.36 0v11.63c0 .65.53 1.18 1.18 1.18ZM15.52 23.85a1.26 1.26 0 1 0 0 2.52 1.26 1.26 0 0 0 0-2.52Z"/>
</svg>
